<svg width="322" height="100" viewBox="0 0 322 100" fill="none" xmlns="http://www.w3.org/2000/svg">
<path fill-rule="evenodd" clip-rule="evenodd" d="M66.5164 86.1442C86.6707 86.1442 103.033 69.7573 103.033 49.5722C103.033 29.3871 86.6707 13 66.5164 13C46.3621 13 30 29.3871 30 49.5722C30 69.7573 46.3621 86.1442 66.5164 86.1442ZM82.195 54.1075C84.7727 56.0632 85.2784 59.7459 83.3257 62.3274C81.3729 64.909 77.6959 65.4175 75.1183 63.4618C72.5426 61.506 72.0349 57.8214 73.9877 55.2418C75.9404 52.6602 79.6174 52.1517 82.195 54.1075ZM81.4217 36.3455C81.4217 36.3455 81.3964 36.326 81.3475 36.2888C79.717 35.0508 77.6608 34.513 75.6318 34.7927C73.6049 35.0723 71.7713 36.148 70.5352 37.783C63.6615 46.8674 51.6111 62.7987 51.6111 62.7987C51.6111 62.7987 51.6365 62.8183 51.6853 62.8554C53.3178 64.0934 55.3721 64.6312 57.401 64.3515C59.4279 64.0719 61.2616 62.9963 62.4977 61.3613C69.3714 52.2769 81.4217 36.3455 81.4217 36.3455ZM57.9145 35.6826C60.4902 37.6383 60.998 41.3209 59.0452 43.9025C57.0924 46.484 53.4154 46.9925 50.8378 45.0368C48.2621 43.081 47.7544 39.3965 49.7071 36.8169C51.6599 34.2353 55.3369 33.7268 57.9145 35.6826Z" fill="white"/>
<path d="M137.174 29.501C141.099 29.5225 144.926 31.0714 147.973 33.7879C148.168 33.9698 148.402 34.1498 148.5 34.3982C148.754 35.0592 148.09 35.6889 147.543 36.3519C146.586 37.5058 145.649 38.7047 144.692 39.7921C144.302 40.2047 143.676 40.1519 143.149 39.7255C140.064 37.2202 135.455 36.3401 131.941 39.3793C128.055 42.7217 127.488 48.8607 128.445 53.6875C128.973 56.3707 130.241 59.0404 132.605 60.5834C135.358 62.3906 139.224 62.1773 141.919 60.4837C142.661 60.0123 143.286 59.4451 143.989 58.8663C144.36 58.5514 144.985 58.5944 145.336 58.968C146.567 60.3663 147.738 61.8155 148.949 63.2432C149.007 63.3018 149.007 63.3058 149.027 63.3331C149.281 63.736 149.183 64.2661 148.812 64.6552C143.833 69.9533 135.28 71.3301 128.328 67.7649C123.231 65.1579 119.873 59.7933 119.052 53.756C118.936 52.9326 118.857 52.1034 118.818 51.2741C118.623 46.7995 119.404 42.2562 121.708 38.2861C124.735 33.0624 130.495 29.5655 136.94 29.501C137.018 29.501 137.096 29.501 137.174 29.501Z" fill="white"/>
<path d="M171.785 38.5206C175.242 38.5656 178.483 40.2182 179.909 44.0827C180.631 46.0639 180.866 48.225 180.886 50.3313C180.925 56.1809 180.886 62.0284 180.886 67.8781C180.886 68.3846 180.456 68.8364 179.929 68.8559C177.566 68.8852 175.203 68.8559 172.821 68.8559C172.313 68.8481 171.864 68.4237 171.844 67.9016C171.785 62.4431 171.864 56.9847 171.844 51.5263C171.844 49.7054 171.883 47.5463 170.204 46.6505C168.271 45.6316 165.712 46.5352 164.404 48.1584C163.662 49.0835 163.252 50.2628 163.233 51.4578C163.213 56.9299 163.233 62.404 163.233 67.8781C163.233 68.3826 162.803 68.8364 162.276 68.8559C159.912 68.8852 157.53 68.8559 155.168 68.8559C154.66 68.8481 154.211 68.4237 154.191 67.9016C154.035 55.555 154.191 43.2065 154.191 30.858C154.191 30.3555 154.621 29.9018 155.148 29.8822C157.511 29.8529 159.893 29.8822 162.256 29.8822C162.764 29.888 163.233 30.3339 163.233 30.858V42.0155C163.291 41.9647 163.35 41.9119 163.408 41.861C164.736 40.7423 166.2 39.7195 167.782 39.1445C169.051 38.683 170.418 38.5108 171.785 38.5206Z" fill="white"/>
<path d="M194.829 56.9188C195.337 59.4026 197.036 61.6673 199.711 62.4046C202.386 63.14 205.316 62.4946 207.718 61.1784C207.718 61.1784 208.636 60.9066 209.007 61.55C209.768 62.8779 210.529 64.2136 211.213 65.5279C211.663 66.5019 210.1 67.2901 208.733 67.9217C208.479 68.0391 208.225 68.1505 207.972 68.2581C201.743 70.8201 193.834 70.2333 189.225 64.3838C185.788 60.0127 185.144 53.5511 186.979 48.3606C188.834 43.131 193.599 38.9379 199.419 38.6797C199.633 38.6699 199.868 38.668 200.102 38.668C204.769 38.709 209.592 41.0208 211.584 46.4694C212.6 49.2778 212.814 52.4069 212.482 55.2603C212.482 55.3014 212.483 55.3424 212.463 55.3835C212.365 56.205 211.623 56.9012 210.745 56.9188C207.542 56.9344 204.339 56.9188 201.117 56.9188H194.829ZM200.141 45.6597C198.481 45.6714 196.802 46.4811 195.825 47.9479C195.278 48.7928 194.947 49.7765 194.77 50.7798L204.867 50.811C204.828 48.738 204.144 46.4048 201.743 45.8279C201.215 45.7027 200.687 45.6597 200.141 45.6597Z" fill="white"/>
<path d="M224.501 39.3761C224.989 39.4035 225.399 39.7986 225.439 40.2777L225.712 44.0425C225.751 43.9995 225.771 43.9564 225.79 43.9134C227.625 40.9641 230.789 38.6427 234.265 38.6682C234.402 38.6701 234.558 38.672 234.714 38.6779C235.535 38.7033 236.413 38.7092 237.135 39.0789C237.507 39.2647 237.721 39.7008 237.663 40.1056C237.311 42.1298 236.901 44.1403 236.511 46.1547C236.511 46.2212 236.491 46.2251 236.491 46.2505C236.335 46.7688 235.768 47.0172 235.144 46.8822C233.035 46.4265 230.789 46.7296 229.071 48.2531C227.625 49.5381 226.805 51.4821 226.766 53.4104C226.727 58.2724 226.766 63.1519 226.766 68.0256C226.766 68.534 226.337 68.9839 225.829 69.0034C223.447 69.0249 221.084 69.0034 218.702 69.0034C218.194 68.9975 217.745 68.5732 217.725 68.051C217.55 58.818 217.725 49.585 217.725 40.352C217.745 39.8415 218.155 39.3937 218.682 39.3741C220.615 39.3565 222.529 39.3741 224.462 39.3741C224.482 39.3741 224.481 39.3742 224.501 39.3761Z" fill="white"/>
<path d="M247.673 39.39C248.142 39.4174 248.551 39.8124 248.591 40.2916L248.883 44.0564C248.942 43.9527 249.001 43.851 249.079 43.7493C250.875 40.9898 253.765 38.768 257.085 38.6839C258.179 38.6565 259.35 38.6077 260.307 39.0928C260.658 39.2766 260.874 39.7069 260.815 40.1195C260.444 42.1359 260.053 44.1522 259.682 46.1685C259.682 46.1685 259.291 47.0878 258.53 46.945C257.417 46.7044 256.265 46.546 255.152 46.7866C252.809 47.295 250.856 49.1725 250.192 51.6113C249.723 53.2834 249.938 55.116 249.938 56.925C249.938 58.3312 249.938 59.7374 249.938 61.1436V68.063C249.918 68.544 249.782 68.6145 249.606 68.7631C249.45 68.9176 249.216 69.0075 248.981 69.0173C246.618 69.0388 244.236 69.0173 241.874 69.0173C241.366 69.0114 240.917 68.5773 240.897 68.063V40.3424C240.917 39.8457 241.326 39.4076 241.834 39.388C243.767 39.3704 245.7 39.388 247.614 39.388C247.653 39.388 247.653 39.3881 247.673 39.39Z" fill="white"/>
<path d="M291.058 39.4274C291.663 39.449 292.152 40.1236 291.956 40.7221L282.193 69.2191C280.533 73.5002 278.443 77.8984 274.108 79.6527C271.53 80.6893 268.543 80.754 265.985 80.1437C265.497 80.0286 265.028 79.9051 264.54 79.7744C264.54 79.7744 264.208 79.6898 263.993 79.4476C263.778 79.1916 263.719 78.8217 263.817 78.4974C264.364 76.8816 264.93 75.2664 265.477 73.6507C265.633 73.2184 266.102 72.9349 266.57 73.0073C266.57 73.0073 267.41 73.1069 267.781 73.1794C269.597 73.5199 271.589 72.89 272.722 71.1904C273.034 70.7328 273.269 70.234 273.463 69.7158C273.561 69.4498 273.503 69.6298 273.561 69.3482C273.757 68.4818 273.679 67.5665 273.366 66.7314C269.988 58.0499 266.414 49.4408 263.094 40.7377C262.899 40.1588 263.349 39.443 264.012 39.4255C266.355 39.4137 268.699 39.4078 271.042 39.4255C271.452 39.4372 271.824 39.7032 271.96 40.0748L277.916 56.8588C279.849 51.2616 281.685 45.6329 283.696 40.0689C283.716 40.0063 283.716 40.0044 283.716 39.979C283.872 39.6582 284.223 39.4372 284.595 39.4255C286.742 39.4078 288.91 39.3805 291.058 39.4274Z" fill="white"/>
</svg>
