<svg width="334" height="100" viewBox="0 0 334 100" fill="none" xmlns="http://www.w3.org/2000/svg">
<path d="M61.3889 52.4992L65.5556 64.0733C65.7407 64.6288 65.3704 64.9066 65 64.9066H60.463C60 64.9066 59.9074 64.6288 59.7222 64.0733L55.9259 53.5177H55.0926C54.0741 53.5177 52.8704 53.4251 51.5741 53.3325L49.7222 64.0733C49.6296 64.5362 49.537 64.9066 48.7963 64.9066H44.8148C44.3519 64.9066 44.0741 64.6288 44.1667 64.0733L49.0741 36.8511C49.2593 36.0177 49.7222 35.7399 50.5556 35.6474C52.6852 35.3696 55.463 35.0918 58.4259 35.0918C64.3518 35.0918 68.4259 37.4066 68.4259 42.777C68.4259 47.0362 66.0185 51.1103 61.3889 52.4992ZM57.5926 39.9066C56.7593 39.9066 54.8148 39.9992 54.0741 40.0918L52.5 48.9807C53.1481 48.9807 55.3704 49.0733 56.0185 49.0733C60.0926 49.0733 62.8704 47.5918 62.8704 43.0548C62.8704 40.6474 61.0185 39.9066 57.5926 39.9066Z" fill="#7BADD3"/>
<path d="M91.6667 47.4994L90.7407 52.8698C89.1667 62.129 84.1667 65.1846 77.3148 65.1846C71.6667 65.1846 67.963 62.0364 67.963 55.9253C67.963 54.9994 68.0555 53.9809 68.2407 52.8698L69.1667 47.4994C70.7407 38.2401 75.7407 35.1846 82.5926 35.1846C88.2407 35.1846 91.9444 38.5179 91.9444 44.629C91.9444 45.4623 91.7592 46.4809 91.6667 47.4994ZM81.6667 39.9068C77.5926 39.9068 75.4629 42.129 74.6296 47.4994L73.7037 52.8698C73.5185 53.9809 73.4259 54.9994 73.4259 55.8327C73.4259 59.2586 75 60.4624 78.0555 60.4624C82.2222 60.4624 84.2592 58.0549 85.0926 52.8698L86.0185 47.4994C86.2037 46.3883 86.2963 45.3698 86.2963 44.5364C86.3889 41.2031 84.8148 39.9068 81.6667 39.9068Z" fill="#7BADD3"/>
<path d="M113.056 35.833C113.704 36.0182 113.889 36.2034 113.796 36.7589L113.333 39.4441C113.241 39.9997 113.148 40.3701 112.315 40.2775C110.926 40.1849 108.241 39.9997 106.204 39.9997C102.315 39.9997 100.093 42.0367 99.1667 47.4071L98.1482 53.2404C97.963 54.2589 97.8704 55.0923 97.8704 55.833C97.8704 59.5367 99.537 60.6478 102.5 60.6478C104.63 60.6478 107.315 60.4626 108.704 60.3701C109.537 60.2775 109.537 60.6478 109.444 61.2034L108.981 63.8886C108.889 64.4441 108.519 64.6293 107.963 64.8145C107.315 64.9997 104.722 65.4626 101.667 65.4626C96.9445 65.4626 92.3148 63.2404 92.3148 56.2034C92.3148 55.3701 92.4074 54.3515 92.5926 53.333L93.6111 47.4997C95.463 36.8515 101.204 35.3701 106.944 35.3701C110 35.1849 112.5 35.6478 113.056 35.833Z" fill="#7BADD3"/>
<path d="M132.407 35.7403C133.056 35.8329 133.148 36.0181 133.056 36.5736L132.593 39.0736C132.5 39.5366 132.407 39.9069 131.667 39.9069H123.611C121.296 39.9069 120.37 40.7403 119.907 43.3329L119.167 47.5921H129.907C130.37 47.5921 130.741 47.6847 130.556 48.4255L130 51.2958C129.907 51.7588 129.722 52.1292 129.074 52.1292H118.333L117.5 57.2218C117.407 57.7773 117.407 58.1477 117.407 58.5181C117.407 60.0921 118.241 60.6477 120.093 60.6477H128.148C128.611 60.6477 128.889 60.8329 128.796 61.481L128.333 63.981C128.241 64.5366 127.963 64.7218 127.407 64.8143C126.111 64.9995 124.537 65.3699 119.815 65.3699C115.37 65.3699 111.944 63.6106 111.944 59.0736C111.944 58.5181 111.944 57.8699 112.13 57.2218L114.537 43.4255C115.833 36.2958 119.722 35.2773 125.093 35.2773C129.63 35.1847 131.204 35.5551 132.407 35.7403Z" fill="#7BADD3"/>
<path d="M151.204 35.7403C151.852 35.8329 151.944 36.0181 151.852 36.5736L151.389 39.0736C151.296 39.5366 151.204 39.9069 150.463 39.9069H142.407C140.093 39.9069 139.167 40.7403 138.704 43.3329L137.963 47.5921H148.704C149.167 47.5921 149.537 47.6847 149.352 48.4255L148.796 51.2958C148.704 51.7588 148.519 52.1292 147.87 52.1292H137.13L136.296 57.2218C136.204 57.7773 136.204 58.1477 136.204 58.5181C136.204 60.0921 137.037 60.6477 138.889 60.6477H146.944C147.407 60.6477 147.685 60.8329 147.593 61.481L147.13 63.981C147.037 64.5366 146.759 64.7218 146.204 64.8143C144.907 64.9995 143.333 65.3699 138.611 65.3699C134.167 65.3699 130.741 63.6106 130.741 59.0736C130.741 58.5181 130.741 57.8699 130.926 57.2218L133.333 43.4255C134.63 36.2958 138.519 35.2773 143.889 35.2773C148.519 35.1847 150 35.5551 151.204 35.7403Z" fill="#7BADD3"/>
<path d="M172.593 47.2216L171.574 53.0549C170.185 61.2031 165.37 65.1846 157.037 65.1846C154.259 65.1846 150.463 64.9068 149.352 64.7216C148.796 64.629 148.519 64.3512 148.519 63.7957C148.519 63.7031 148.519 63.6105 148.519 63.5179L153.241 36.8512C153.426 36.0179 153.796 35.7401 154.444 35.6475C155.648 35.4623 159.537 35.1846 162.315 35.1846C169.074 35.1846 172.87 38.7031 172.87 44.629C172.778 45.3698 172.778 46.2957 172.593 47.2216ZM161.481 39.8142C160 39.8142 158.981 39.9068 158.148 39.9068L154.537 60.4624C155.37 60.4624 156.389 60.5549 157.778 60.5549C161.759 60.5549 165.093 58.7957 166.111 53.0549L167.13 47.2216C167.315 46.2957 167.407 45.4623 167.407 44.7216C167.407 40.7401 165 39.8142 161.481 39.8142Z" fill="#7BADD3"/>
<path d="M32.5926 19.2588C28.1481 19.2588 23.7037 19.5366 20.5555 20.0921C19.2592 20.2773 18.5185 20.7403 18.3333 21.944L17.2222 28.1477C22.4074 28.2403 28.9815 28.3329 30.1852 28.3329C30.6481 28.3329 30.7407 28.2403 30.8333 27.7773C30.9259 26.8514 31.1111 25.8329 31.2963 24.9069C31.3889 24.444 31.5741 24.0736 31.9444 23.7958C32.5 23.3329 33.2407 23.3329 33.7037 23.7958C33.7963 23.8884 33.7963 23.8884 33.8889 23.981C35.6481 26.018 37.5 28.0551 39.2593 30.0921C40 30.9255 40.6481 31.8514 41.3889 32.7773C41.7592 33.2403 41.6667 33.7958 41.2963 34.3514C41.0185 34.7218 40.6481 35.1847 40.1852 35.4625C37.2222 37.9625 34.1667 40.4625 31.2037 42.9625C30.8333 43.2403 30.463 43.518 30 43.7032C29.3518 43.981 28.6111 43.7958 28.3333 43.2403C28.2407 43.0551 28.2407 42.8699 28.2407 42.6847C28.3333 42.0366 28.4259 41.481 28.5185 40.8329C28.6111 40.1847 28.7037 39.5366 28.7963 38.8884C28.7963 38.7032 28.7963 38.7032 28.6111 38.7032C28.4259 38.7032 28.2407 38.7032 28.0555 38.7032C27.2222 38.7032 20 38.6106 15.1852 38.6106L10.8333 63.8884C10.7407 64.5366 10.8333 65.0921 11.8518 65.0921H17.963C18.9815 65.0921 19.2592 64.5366 19.3518 63.8884L22.1296 47.9625C23.5185 48.0551 25.9259 48.2403 27.5 48.2403C41.5741 48.2403 47.8704 41.1106 47.8704 31.6662C47.8704 23.518 43.0555 19.2588 32.5926 19.2588Z" fill="#7BADD3"/>
<path d="M194.537 35.9257C195.278 36.0183 195.278 36.2035 195.185 36.759L194.722 39.259C194.63 39.722 194.444 40.0923 193.796 40.0923H185.648C183.333 40.0923 182.407 40.9257 181.944 43.5183L181.204 47.7775H191.944C192.685 47.7775 192.685 48.1479 192.593 48.6109L192.037 51.4812C191.944 51.9442 191.759 52.3146 191.111 52.3146H180.37L178.241 64.4442C178.148 64.9072 177.685 65.2775 177.315 65.2775H173.426C173.056 65.2775 172.778 64.9997 172.778 64.6294C172.778 64.5368 172.778 64.5368 172.778 64.4442L176.481 43.5183C177.685 36.759 181.204 35.3701 187.13 35.3701C191.111 35.3701 192.87 35.6479 194.537 35.9257Z" fill="#B4A269"/>
<path d="M203.148 35.6475C203.704 35.6475 203.889 35.8326 203.796 36.3882L198.889 64.3512C198.796 64.8141 198.704 65.1845 197.963 65.1845H193.981C193.426 65.1845 193.241 64.8141 193.333 64.3512L198.241 36.3882C198.333 35.9252 198.519 35.6475 199.167 35.6475H203.148Z" fill="#B4A269"/>
<path d="M228.333 35.6475C228.796 35.6475 229.074 35.8326 228.981 36.3882L224.167 63.6104C223.981 64.4438 223.148 65.1845 222.315 65.1845H218.611C217.685 65.1845 216.852 65.1845 216.389 63.7956L210.648 44.4438C210.556 44.166 210.463 44.166 210.37 44.166C210.278 44.166 210.093 44.2586 210.093 44.4438L206.574 64.4438C206.481 64.9067 206.389 65.2771 205.648 65.2771H202.222C201.852 65.2771 201.481 65.0919 201.574 64.4438L206.389 37.3141C206.574 36.4808 207.407 35.7401 208.241 35.7401H212.222C213.056 35.7401 213.426 36.0178 213.704 37.0363L219.63 57.4993C219.63 57.6845 219.722 57.7771 219.907 57.7771C220 57.7771 220.185 57.6845 220.185 57.4067L223.889 36.4808C223.981 36.0178 224.167 35.7401 224.722 35.7401H228.333V35.6475Z" fill="#B4A269"/>
<path d="M250.278 65.1848H246.204C245.648 65.1848 245.648 64.907 245.556 64.5366L245.093 56.944H235.926L232.778 64.5366C232.593 64.907 232.407 65.1848 231.944 65.1848H227.593C227.222 65.1848 227.037 64.9996 227.037 64.6292C227.037 64.5366 227.037 64.3514 227.13 64.2588L238.056 39.3514C239.722 35.6477 242.13 35.2773 244.259 35.2773C246.296 35.2773 248.796 36.0181 249.074 39.3514L251.204 64.2588C251.204 64.2588 251.204 64.2588 251.204 64.3514C251.111 64.8144 250.926 65.1848 250.278 65.1848ZM243.981 40.6477C243.981 40.1848 243.889 39.9996 243.426 39.9996C243.056 39.9996 242.87 40.1848 242.685 40.6477L237.778 52.4996H244.815L243.981 40.6477Z" fill="#B4A269"/>
<path d="M280.741 35.6475C281.204 35.6475 281.481 35.8326 281.389 36.3882L276.574 63.6104C276.389 64.4438 275.556 65.1845 274.722 65.1845H271.019C270.093 65.1845 269.259 65.1845 268.796 63.7956L263.056 44.4438C262.963 44.166 262.87 44.166 262.778 44.166C262.685 44.166 262.5 44.2586 262.5 44.4438L258.981 64.4438C258.889 64.9067 258.796 65.2771 258.056 65.2771H254.63C254.259 65.2771 253.889 65.0919 253.981 64.4438L258.796 37.3141C258.981 36.4808 259.815 35.7401 260.648 35.7401H264.63C265.463 35.7401 265.833 36.0178 266.111 37.0363L272.222 57.4067C272.222 57.5919 272.315 57.6845 272.5 57.6845C272.593 57.6845 272.778 57.5919 272.778 57.3141L276.481 36.3882C276.574 35.9252 276.759 35.6475 277.315 35.6475H280.741Z" fill="#B4A269"/>
<path d="M301.759 36.0186C302.407 36.2038 302.593 36.3889 302.5 36.9445L302.037 39.6297C301.944 40.1852 301.852 40.5556 301.019 40.463C299.63 40.3704 296.944 40.1852 294.815 40.1852C290.926 40.1852 288.611 42.2223 287.778 47.5926L286.759 53.426C286.574 54.4445 286.481 55.2778 286.481 56.0186C286.481 59.7223 288.148 60.8334 291.204 60.8334C293.333 60.8334 296.019 60.6482 297.407 60.5556C298.241 60.463 298.241 60.8334 298.148 61.3889L297.685 64.0741C297.593 64.6297 297.222 64.8149 296.667 65C296.019 65.1852 293.333 65.6482 290.278 65.6482C285.556 65.6482 280.926 63.426 280.926 56.3889C280.926 55.5556 281.019 54.5371 281.204 53.5186L282.222 47.6852C284.074 37.0371 289.815 35.5556 295.648 35.5556C298.611 35.3704 301.204 35.8334 301.759 36.0186Z" fill="#B4A269"/>
<path d="M321.204 35.9257C321.852 36.0183 321.944 36.2035 321.852 36.759L321.389 39.259C321.296 39.722 321.204 40.0923 320.463 40.0923H312.315C310 40.0923 309.074 40.9257 308.611 43.5183L307.87 47.7775H318.611C319.074 47.7775 319.444 47.8701 319.259 48.6109L318.704 51.4812C318.611 51.9442 318.426 52.3146 317.778 52.3146H307.037L306.204 57.4072C306.111 57.9627 306.111 58.3331 306.111 58.7035C306.111 60.2775 306.944 60.8331 308.796 60.8331H316.944C317.407 60.8331 317.685 61.0183 317.593 61.6664L317.13 64.1664C317.037 64.722 316.759 64.9072 316.204 64.9997C314.907 65.1849 313.333 65.5553 308.611 65.5553C304.074 65.5553 300.741 63.796 300.741 59.259C300.741 58.7034 300.741 58.0553 300.926 57.4072L303.333 43.5183C304.63 36.3886 308.519 35.3701 313.981 35.3701C318.426 35.3701 320 35.7405 321.204 35.9257Z" fill="#B4A269"/>
<path d="M180.741 78.1484C180.926 78.1484 181.111 78.241 181.019 78.5188L178.796 90.5558C178.704 90.9262 178.333 91.2966 177.963 91.2966H176.296C175.833 91.2966 175.463 91.2966 175.278 90.6484L172.685 82.0373C172.685 81.9447 172.593 81.8521 172.593 81.8521C172.593 81.8521 172.5 81.8521 172.5 82.0373L170.926 90.9262C170.926 91.1114 170.833 91.2966 170.463 91.2966H168.889C168.704 91.2966 168.519 91.204 168.611 90.9262L170.833 78.8892C170.926 78.5188 171.296 78.1484 171.667 78.1484H173.519C173.889 78.1484 174.074 78.241 174.167 78.704L176.852 87.7781C176.852 87.8707 176.944 87.9633 176.944 87.9633C176.944 87.9633 177.037 87.8707 177.037 87.7781L178.704 78.5188C178.704 78.3336 178.889 78.1484 179.074 78.1484H180.741Z" fill="#7BADD3"/>
<path d="M194.259 85.556L193.981 86.9448C193.426 89.8152 191.667 91.2967 188.889 91.2967C186.389 91.2967 185.278 89.63 185.278 87.7782C185.278 87.5004 185.278 87.2226 185.37 86.9448L185.648 85.556C186.204 82.6856 187.963 81.2041 190.833 81.2041C193.333 81.2041 194.444 82.8708 194.444 84.63C194.352 85.0004 194.352 85.2782 194.259 85.556ZM190.37 83.2411C189.259 83.2411 188.333 83.8893 187.963 85.6485L187.685 87.0374C187.593 87.3152 187.593 87.593 187.593 87.7782C187.593 88.7967 188.148 89.3523 189.167 89.3523C190.463 89.3523 191.204 88.6115 191.574 86.9448L191.852 85.556C191.944 85.2782 191.944 85.0004 191.944 84.8152C191.944 83.7967 191.481 83.2411 190.37 83.2411Z" fill="#7BADD3"/>
<path d="M213.333 81.2969C213.611 81.2969 213.796 81.3895 213.611 81.6672L210.556 89.8154C210.185 90.8339 209.815 91.2969 208.704 91.2969H208.241C207.222 91.2969 206.852 90.8339 206.759 89.908L206.296 84.5376C206.296 84.445 206.296 84.445 206.296 84.445C206.296 84.445 206.296 84.445 206.204 84.5376L203.796 89.908C203.333 90.8339 202.778 91.2969 201.852 91.2969H201.389C200.278 91.2969 200.093 90.8339 200 89.8154L199.815 81.6672C199.815 81.4821 199.907 81.2969 200.278 81.2969H201.944C202.13 81.2969 202.222 81.4821 202.222 81.5746L202.037 88.9821C202.037 89.1672 202.037 89.2598 202.13 89.2598C202.222 89.2598 202.222 89.1672 202.315 88.9821L204.907 83.0561C205.185 82.408 205.463 82.3154 206.111 82.3154H207.407C208.056 82.3154 208.241 82.408 208.241 83.0561L208.704 88.9821C208.704 89.1672 208.704 89.2598 208.796 89.2598C208.889 89.2598 208.889 89.1672 208.981 88.9821L211.481 81.5746C211.574 81.3895 211.574 81.2969 211.852 81.2969H213.333Z" fill="#7BADD3"/>
<path d="M237.593 78.6116L233.704 84.7227C233.241 85.4634 232.778 85.9264 232.315 86.019L231.389 90.9264C231.389 91.1116 231.204 91.2968 230.926 91.2968H229.074C228.889 91.2968 228.796 91.2042 228.796 90.9264L229.722 86.019C229.352 85.8338 229.074 85.4634 228.889 84.7227L227.222 78.6116C227.13 78.3338 227.222 78.2412 227.593 78.2412H229.537C229.722 78.2412 229.815 78.3338 229.907 78.519L231.111 83.7968C231.204 84.0745 231.204 84.0745 231.389 84.0745C231.574 84.0745 231.574 84.0745 231.759 83.7968L234.907 78.519C235 78.3338 235.185 78.2412 235.37 78.2412H237.407C237.593 78.2412 237.685 78.3338 237.685 78.4264C237.685 78.4264 237.593 78.519 237.593 78.6116Z" fill="#7BADD3"/>
<path d="M248.241 85.556L247.963 86.9448C247.407 89.8152 245.648 91.2967 242.87 91.2967C240.37 91.2967 239.259 89.63 239.259 87.7782C239.259 87.5004 239.259 87.2226 239.352 86.9448L239.63 85.556C240.185 82.6856 241.944 81.2041 244.815 81.2041C247.315 81.2041 248.426 82.8708 248.426 84.63C248.333 85.0004 248.333 85.2782 248.241 85.556ZM244.352 83.2411C243.241 83.2411 242.315 83.8893 241.944 85.6485L241.667 87.0374C241.574 87.3152 241.574 87.593 241.574 87.7782C241.574 88.7967 242.13 89.3523 243.148 89.3523C244.444 89.3523 245.185 88.6115 245.556 86.9448L245.833 85.556C245.926 85.2782 245.926 85.0004 245.926 84.8152C245.926 83.7967 245.463 83.2411 244.352 83.2411Z" fill="#7BADD3"/>
<path d="M262.778 81.2969C263.056 81.2969 263.148 81.3895 263.056 81.6672L261.389 90.9265C261.389 91.1117 261.204 91.2969 260.926 91.2969H259.352C259.167 91.2969 259.074 91.1117 259.074 91.0191L259.167 90.6487C258.241 91.1117 257.315 91.5747 256.296 91.5747C254.907 91.5747 253.519 90.8339 253.519 88.8895C253.519 88.5191 253.519 88.0561 253.611 87.5932L254.63 81.8524C254.63 81.6672 254.815 81.4821 255.093 81.4821H256.759C257.037 81.4821 257.13 81.5747 257.037 81.8524L256.019 87.5932C255.926 88.0561 255.926 88.3339 255.926 88.6117C255.926 89.3524 256.204 89.5376 257.037 89.5376C257.87 89.5376 258.889 89.1672 259.444 88.8895L260.741 81.7598C260.741 81.5747 260.926 81.3895 261.204 81.3895H262.778V81.2969Z" fill="#7BADD3"/>
<path d="M286.111 78.3334C286.389 78.426 286.481 78.5186 286.481 78.7038L286.296 79.9075C286.296 80.0927 286.204 80.2779 285.833 80.2779C285.185 80.1853 283.982 80.0927 283.056 80.0927C281.296 80.0927 280.185 81.0186 279.815 83.426L279.352 86.0186C279.259 86.4816 279.259 86.852 279.259 87.2223C279.259 88.889 280 89.352 281.389 89.352C282.315 89.352 283.611 89.2594 284.259 89.1668C284.63 89.1668 284.63 89.2594 284.63 89.5371L284.444 90.7408C284.352 91.0186 284.259 91.1112 283.982 91.1112C283.704 91.2038 282.5 91.389 281.111 91.389C278.981 91.389 276.852 90.3705 276.852 87.3149C276.852 86.9446 276.944 86.4816 276.944 86.0186L277.407 83.426C278.241 78.7038 280.926 78.0557 283.519 78.0557C284.63 78.0557 285.833 78.2408 286.111 78.3334Z" fill="#7BADD3"/>
<path d="M299.167 81.6669C299.537 81.7595 299.63 81.8521 299.537 82.1298L297.963 90.9261C297.963 91.1113 297.685 91.2965 297.5 91.2965H296.019C295.833 91.2965 295.648 91.1113 295.741 90.9261L295.833 90.3706C294.815 91.1113 293.889 91.3891 293.056 91.3891C291.389 91.3891 290.093 90.3706 290.093 88.241C290.093 87.6854 290.185 87.2224 290.185 86.8521L290.37 85.5558C290.833 82.778 292.593 81.1113 295.556 81.1113C296.759 81.2039 298.056 81.3891 299.167 81.6669ZM295.185 83.1484C293.611 83.1484 293.056 84.2595 292.778 85.6484L292.5 87.1298C292.407 87.6854 292.407 88.0558 292.407 88.241C292.407 89.2595 292.963 89.5373 293.611 89.5373C294.259 89.5373 295.093 89.2595 295.926 88.7965L296.944 83.241C296.574 83.1484 295.926 83.1484 295.185 83.1484Z" fill="#7BADD3"/>
<path d="M313.241 85.1858L312.222 90.9265C312.222 91.1117 312.13 91.2969 311.759 91.2969H310.093C309.907 91.2969 309.722 91.2043 309.815 90.9265L310.833 85.1858C310.926 84.7228 310.926 84.445 310.926 84.1672C310.926 83.5191 310.648 83.2413 309.815 83.2413C308.981 83.2413 308.333 83.5191 307.5 83.8895L306.204 91.0191C306.204 91.2043 306.111 91.3895 305.741 91.3895H304.074C303.889 91.3895 303.704 91.2969 303.796 91.0191L305.463 81.7598C305.463 81.5747 305.648 81.3895 305.926 81.3895H307.407C307.685 81.3895 307.778 81.3895 307.778 81.7598L307.685 82.1302C308.889 81.4821 309.815 81.2969 310.741 81.2969C312.685 81.2969 313.426 82.408 313.426 83.9821C313.333 84.2598 313.333 84.7228 313.241 85.1858Z" fill="#7BADD3"/>
</svg>
